<svg width="1920" height="377" viewBox="0 0 1920 377" fill="none" xmlns="http://www.w3.org/2000/svg">
<path d="M156.672 115.901C135.175 115.901 120.94 116.191 113.968 116.772C110.772 117.063 109.175 121.42 109.175 129.845V257.523C109.175 264.204 111.063 269.288 114.839 272.774C120.65 278.003 128.203 281.489 137.499 283.232C138.951 283.523 139.968 284.685 140.549 286.718C141.13 288.461 141.13 290.205 140.549 291.948C139.968 293.4 138.951 294.126 137.499 294.126C131.979 294.126 124.426 293.691 114.839 292.819C105.543 291.657 97.8448 291.076 91.7442 291.076C85.934 291.076 78.5261 291.657 69.5204 292.819C60.5147 293.691 53.3973 294.126 48.1682 294.126C47.0062 294.126 46.1347 293.4 45.5536 291.948C44.9726 290.205 44.8274 288.461 45.1179 286.718C45.6989 284.685 46.7157 283.523 48.1682 283.232C57.4644 281.489 65.0176 278.003 70.8277 272.774C74.6043 269.288 76.4926 264.204 76.4926 257.523V129.845C76.4926 121.711 74.7495 117.353 71.2635 116.772C67.7774 116.191 57.0286 115.901 39.0173 115.901C29.14 115.901 21.8774 119.968 17.2293 128.102C16.0672 130.135 13.8884 132.75 10.6929 135.946C7.78781 138.851 5.3185 140.303 3.28496 140.303C-0.782133 140.303 -1.07264 136.527 2.41344 128.973C4.15648 125.487 5.46375 121.711 6.33527 117.644C7.20679 113.577 7.93306 108.202 8.51407 101.521C9.09508 94.839 9.53084 90.7719 9.82135 89.3194C10.4024 84.9618 12.2907 82.783 15.4862 82.783C17.5198 82.783 20.2796 85.8333 23.7657 91.9339C25.7992 96.001 32.1903 98.0345 42.9391 98.0345H161.03C172.65 98.0345 180.058 96.1462 183.254 92.3697C186.74 88.8836 190.226 87.1405 193.712 87.1405C194.583 87.1405 195.455 87.7216 196.326 88.8836C197.198 90.0456 197.343 91.2076 196.762 92.3697C194.148 97.5988 191.678 111.253 189.354 133.331C189.064 134.784 188.773 136.091 188.483 137.253C188.192 138.415 187.611 139.432 186.74 140.303C186.159 141.175 185.287 141.611 184.125 141.611C181.511 141.32 179.187 137.979 177.153 131.588C177.153 131.298 177.008 130.426 176.717 128.973C176.427 127.521 176.136 126.504 175.846 125.923C175.846 125.342 175.555 124.471 174.974 123.309C174.393 122.147 173.812 121.42 173.231 121.13C172.941 120.549 172.214 119.823 171.052 118.951C170.181 118.079 169.019 117.498 167.566 117.208C166.404 116.917 164.807 116.627 162.773 116.336C161.03 116.046 158.996 115.901 156.672 115.901Z" fill="#6B000B"/>
<path d="M410.795 289.987C409.052 289.987 408.18 288.389 408.18 285.193C408.471 281.998 409.342 280.11 410.795 279.529C421.543 276.043 429.823 271.83 435.633 266.892C440.572 262.824 445.074 256.724 449.142 248.59C461.924 221.863 478.773 182.935 499.69 131.806C501.142 127.739 502.159 123.962 502.74 120.476C503.031 119.024 503.321 117.136 503.612 114.811C503.902 112.487 504.193 110.599 504.483 109.147L504.919 106.532C506.662 106.242 510.003 104.353 514.941 100.867C519.88 97.3811 523.075 94.7665 524.528 93.0235C528.014 88.9564 530.048 86.9229 530.629 86.9229C531.791 86.9229 532.807 88.2301 533.679 90.8447C539.489 106.532 548.059 130.644 559.389 163.181C571.009 195.717 580.596 222.008 588.149 242.053C591.345 251.349 596.428 259.629 603.401 266.892C609.792 273.864 616.328 278.076 623.01 279.529C624.753 280.11 625.769 281.998 626.06 285.193C626.35 288.389 625.334 289.987 623.01 289.987C617.781 289.987 610.808 289.551 602.093 288.68C593.669 288.099 586.696 287.808 581.177 287.808C574.786 287.808 566.797 288.099 557.21 288.68C547.623 289.551 540.506 289.987 535.858 289.987C534.696 289.987 533.969 289.115 533.679 287.372C533.388 285.629 533.534 283.886 534.115 282.143C534.696 280.4 535.422 279.529 536.294 279.529C543.847 278.076 549.657 274.154 553.724 267.763C556.048 263.696 556.338 257.741 554.595 249.897C554.014 246.701 551.981 240.456 548.495 231.159C547.914 229.126 545.154 228.109 540.215 228.109H478.337C476.304 228.109 474.561 229.852 473.108 233.338C468.46 244.958 466.136 251.204 466.136 252.076C464.974 259.338 465.119 264.132 466.572 266.456C470.93 273.428 477.03 277.786 484.874 279.529C486.907 279.819 487.924 281.707 487.924 285.193C487.924 288.389 486.907 289.987 484.874 289.987C479.064 289.987 471.801 289.551 463.086 288.68C454.371 288.099 447.253 287.808 441.734 287.808C437.667 287.808 432.437 288.099 426.046 288.68C419.655 289.551 414.571 289.987 410.795 289.987ZM512.327 141.829C506.226 156.935 495.913 180.321 481.388 211.986C480.516 213.729 480.516 214.891 481.388 215.472C482.259 216.053 484.148 216.343 487.053 216.343H538.037C540.361 216.343 541.668 216.198 541.958 215.908C542.249 215.617 542.104 214.31 541.523 211.986C539.78 205.595 531.791 182.209 517.556 141.829C516.684 139.504 515.958 138.052 515.377 137.471C515.087 136.89 514.651 136.89 514.07 137.471C513.779 138.052 513.198 139.504 512.327 141.829Z" fill="#6B000B"/>
<path d="M843.714 284.54C841.971 284.54 841.1 282.942 841.1 279.746C841.39 276.26 842.262 274.372 843.714 274.081C852.429 272.629 858.239 270.305 861.145 267.109C864.921 263.042 867.1 256.651 867.681 247.936C869.714 211.041 870.731 170.371 870.731 125.923C870.731 117.498 869.86 112.269 868.117 110.236C862.307 103.264 853.01 99.1964 840.228 98.0344C838.194 98.0344 837.178 96.2914 837.178 92.8053C837.178 89.3192 838.194 87.5762 840.228 87.5762C841.681 87.8667 852.284 88.0119 872.039 88.0119C892.083 87.7214 902.396 87.5762 902.977 87.5762C904.14 87.5762 905.011 87.8667 905.592 88.4477C906.173 89.0287 906.899 90.0455 907.771 91.498C908.642 92.6601 909.369 93.5316 909.95 94.1126C919.246 105.152 936.531 126.359 961.805 157.733C987.37 188.818 1009.3 214.673 1027.6 235.299C1027.9 235.589 1028.33 236.316 1028.91 237.478C1029.78 238.349 1030.51 239.075 1031.09 239.656C1031.67 240.237 1032.25 240.673 1032.83 240.964C1033.71 241.254 1034.29 240.964 1034.58 240.092C1035.16 239.221 1035.45 237.623 1035.45 235.299C1036.32 209.444 1035.88 170.516 1034.14 118.515C1034.14 115.901 1033.27 113.577 1031.53 111.543C1029.78 109.219 1027.46 107.331 1024.55 105.878C1021.94 104.426 1019.47 103.264 1017.15 102.392C1014.82 101.52 1012.21 100.649 1009.3 99.7775C1006.4 98.9059 1004.65 98.3249 1004.07 98.0344C1003.2 97.7439 1002.62 96.1461 1002.33 93.2411C1002.33 90.0455 1002.91 88.4477 1004.07 88.4477C1009.3 88.4477 1015.69 88.7382 1023.25 89.3192C1031.09 89.9003 1037.48 90.1908 1042.42 90.1908C1047.07 90.1908 1053.17 89.9003 1060.72 89.3192C1068.28 88.7382 1074.23 88.4477 1078.59 88.4477C1079.46 88.4477 1080.04 90.0455 1080.33 93.2411C1080.62 96.4366 1080.04 98.0344 1078.59 98.0344C1073.07 98.9059 1067.99 101.23 1063.34 105.007C1058.11 108.493 1055.35 112.414 1055.06 116.772C1054.19 131.588 1053.46 146.259 1052.88 160.784C1052.59 175.019 1052.44 186.784 1052.44 196.08C1052.44 205.086 1052.44 218.304 1052.44 235.734C1052.73 252.874 1052.88 266.819 1052.88 277.567C1052.88 280.763 1051.72 283.523 1049.39 285.847C1047.36 288.171 1044.89 289.333 1041.98 289.333C1034.43 289.333 1027.17 285.411 1020.2 277.567C984.465 233.41 945.537 187.51 903.413 139.867C900.799 136.962 898.62 135.219 896.877 134.638C895.134 134.057 893.972 134.202 893.391 135.074C893.1 135.655 892.81 136.817 892.519 138.56C890.776 193.756 890.195 231.377 890.776 251.422C891.357 258.103 892.955 262.897 895.57 265.802C899.056 270.159 904.14 272.919 910.821 274.081C912.564 274.372 913.29 276.26 913 279.746C913 282.942 911.838 284.54 909.514 284.54C904.285 284.54 898.475 284.249 892.083 283.668C885.692 283.087 880.463 282.797 876.396 282.797C872.329 282.797 866.955 283.087 860.273 283.668C853.591 284.249 848.072 284.54 843.714 284.54Z" fill="#6B000B"/>
<path d="M1401.28 274.299C1415.81 274.299 1428.59 271.104 1439.63 264.713C1445.73 260.646 1448.78 252.512 1448.78 240.31C1448.78 238.567 1448.93 235.662 1449.22 231.595C1449.51 227.237 1449.51 223.897 1449.22 221.573C1449.22 219.249 1448.78 217.505 1447.91 216.343C1445.3 213.438 1440.79 211.26 1434.4 209.807C1428.3 208.064 1423.07 207.193 1418.71 207.193C1416.1 207.193 1414.07 203.416 1412.61 195.863C1412.61 193.539 1413.05 192.377 1413.92 192.377C1420.02 192.377 1427.72 192.667 1437.02 193.248C1446.31 193.539 1453.72 193.684 1459.24 193.684C1463.89 193.684 1469.84 193.539 1477.11 193.248C1484.37 192.958 1489.74 192.812 1493.23 192.812C1495.84 192.812 1497.15 193.684 1497.15 195.427C1497.15 202.399 1496.13 206.321 1494.1 207.193C1483.35 210.388 1477.69 215.181 1477.11 221.573C1476.24 229.707 1475.8 240.02 1475.8 252.512C1475.8 253.383 1476.38 254.981 1477.54 257.305C1477.83 257.886 1478.56 258.757 1479.72 259.919C1480.88 260.791 1481.46 261.517 1481.46 262.098C1481.46 264.422 1480.01 266.311 1477.11 267.763C1462.29 275.607 1450.82 280.691 1442.68 283.015C1427.58 287.663 1413.63 289.987 1400.85 289.987C1371.22 289.987 1345.51 280.255 1323.72 260.791C1302.22 241.037 1291.47 216.779 1291.47 188.019C1291.47 159.259 1303.24 135.292 1326.77 116.119C1350.59 96.6548 1378.04 86.9229 1409.13 86.9229C1429.75 86.9229 1446.31 88.9564 1458.8 93.0235C1465.2 95.057 1468.83 97.9621 1469.7 101.739C1473.48 116.845 1475.36 128.175 1475.36 135.728C1475.36 139.795 1473.77 141.829 1470.57 141.829C1467.67 141.829 1464.91 140.957 1462.29 139.214C1459.68 137.471 1458.08 135.583 1457.5 133.549C1454.3 124.543 1450.96 117.862 1447.47 113.504C1439.63 104.789 1424.67 100.577 1402.59 100.867C1381.38 101.158 1363.66 109.001 1349.43 124.398C1335.19 139.505 1328.08 158.387 1328.08 181.047C1328.08 206.03 1334.76 227.818 1348.12 246.411C1361.78 265.003 1379.5 274.299 1401.28 274.299Z" fill="#6B000B"/>
<rect x="1814.11" width="25.14" height="25.14" transform="rotate(45 1814.11 0)" fill="#6B000B"/>
<path d="M1708.22 189.98C1708.22 162.963 1718.53 138.851 1739.16 117.644C1759.79 96.4369 1783.9 85.8334 1811.5 85.8334C1841.13 85.8334 1866.55 95.7106 1887.75 115.465C1909.25 134.929 1920 159.186 1920 188.237C1920 216.707 1910.41 240.964 1891.24 261.009C1872.07 281.054 1845.49 291.076 1811.5 291.076C1782.45 291.076 1757.9 281.344 1737.85 261.88C1718.1 242.126 1708.22 218.159 1708.22 189.98ZM1808.88 99.7777C1786.51 99.7777 1770.24 107.767 1760.08 123.744C1750.2 139.722 1745.26 159.622 1745.26 183.444C1745.26 210.17 1751.51 232.103 1764 249.243C1776.78 266.383 1794.94 274.953 1818.47 274.953C1830.38 274.953 1840.69 272.339 1849.41 267.109C1858.41 261.88 1865.24 255.053 1869.89 246.629C1874.54 237.913 1877.88 229.053 1879.91 220.047C1882.23 210.751 1883.4 201.455 1883.4 192.159C1883.4 167.466 1877 145.968 1864.22 127.666C1851.73 109.074 1833.28 99.7777 1808.88 99.7777Z" fill="#6B000B"/>
<rect x="1814.11" y="341.356" width="25.14" height="25.14" transform="rotate(45 1814.11 341.356)" fill="#6B000B"/>
</svg>
